<svg aria-hidden="true" style="width:0;height:0;position:absolute;overflow:hidden" xmlns="http://www.w3.org/2000/svg"><defs><symbol id="icon-search" viewBox="5 5 22 22"><path d="M19.427 20.427a8.5 8.5 0 1 1 2-2l5.585 5.585c.55.55.546 1.431 0 1.976l-.023.023a1.398 1.398 0 0 1-1.976 0l-5.585-5.585zM14.5 20a6.5 6.5 0 1 0 0-13 6.5 6.5 0 0 0 0 13z"/></symbol><symbol id="icon-search1" viewBox="0 0 32 32"><path d="m31.008 27.231-7.58-6.447c-.784-.705-1.622-1.029-2.299-.998a11.954 11.954 0 0 0 2.87-7.787c0-6.627-5.373-12-12-12s-12 5.373-12 12 5.373 12 12 12c2.972 0 5.691-1.081 7.787-2.87-.031.677.293 1.515.998 2.299l6.447 7.58c1.104 1.226 2.907 1.33 4.007.23s.997-2.903-.23-4.007zM12 20a8 8 0 1 1 0-16 8 8 0 0 1 0 16z"/></symbol></defs></svg>